<?xml version="1.0" encoding="utf-8"?>
<!-- Generator: Adobe Illustrator 16.0.0, SVG Export Plug-In . SVG Version: 6.00 Build 0)  -->
<!DOCTYPE svg PUBLIC "-//W3C//DTD SVG 1.1//EN" "http://www.w3.org/Graphics/SVG/1.1/DTD/svg11.dtd">
<svg version="1.1" id="Layer_1" xmlns="http://www.w3.org/2000/svg" xmlns:xlink="http://www.w3.org/1999/xlink" x="0px" y="0px"
	 width="175.312px" height="50px" viewBox="0 0 175.312 50" enable-background="new 0 0 175.312 50" xml:space="preserve">
<g>
	<path fill="#184C8D" d="M164.363,2.262c-3.427,0-6.49,1.542-8.516,3.96c-0.069-0.854-0.303-1.662-0.798-2.304
		c-0.547-0.71-1.33-1.101-2.205-1.101c-1.334,0-2.509,0.909-2.793,2.162c-0.142,0.621-0.129,1.597,0.733,2.726
		c0.162,0.212,0.349,0.42,0.559,0.625c-0.171,0.007-0.338,0.02-0.497,0.038c-0.282,0.033-0.551,0.084-0.8,0.153
		c-0.457,0.125-0.859,0.311-1.197,0.552c-0.237,0.169-0.443,0.366-0.612,0.586c-0.151,0.196-0.274,0.412-0.365,0.64
		c-0.104,0.262-0.167,0.54-0.185,0.827c-0.013,0.194-0.005,0.392,0.022,0.589c0.026,0.19,0.071,0.38,0.135,0.564
		c0.102,0.298,0.246,0.58,0.432,0.836c0.15,0.209,0.326,0.399,0.52,0.562c0.187,0.158,0.392,0.291,0.607,0.396
		c0.228,0.11,0.468,0.189,0.714,0.234c0.164,0.03,0.331,0.045,0.499,0.045c0.31,0,0.623-0.051,0.932-0.153
		c0.248-0.082,0.495-0.197,0.735-0.341c0.139-0.084,0.278-0.18,0.414-0.286c0.15-0.117,0.3-0.248,0.445-0.389
		c0.058-0.056,0.115-0.116,0.172-0.176c-0.001,0.058-0.002,0.116-0.002,0.174c0,2.441,0.809,4.694,2.179,6.513
		c-1.067,4.406-2.873,5.363-2.873,5.363c4.424,0,6.321-2.356,6.539-2.241c1.551,0.82,3.323,1.284,5.206,1.284
		c6.102,0,11.05-4.888,11.05-10.919C175.413,7.15,170.465,2.262,164.363,2.262z M153.165,10.448
		c-0.068,0.125-0.138,0.247-0.208,0.362c-0.054,0.09-0.11,0.178-0.165,0.262c-0.05,0.076-0.101,0.15-0.15,0.221
		c-0.094,0.132-0.189,0.258-0.285,0.373c-0.058,0.069-0.115,0.136-0.173,0.198c-0.055,0.059-0.109,0.116-0.164,0.169
		c-0.102,0.099-0.205,0.19-0.307,0.269c-0.087,0.067-0.175,0.128-0.261,0.18c-0.136,0.083-0.272,0.146-0.405,0.19
		c-0.147,0.048-0.292,0.072-0.43,0.072c-0.071,0-0.142-0.006-0.21-0.019c-0.208-0.038-0.402-0.132-0.576-0.278
		c-0.093-0.078-0.178-0.17-0.251-0.272c-0.092-0.127-0.164-0.267-0.214-0.415c-0.06-0.176-0.086-0.36-0.075-0.531
		c0.008-0.119,0.033-0.232,0.074-0.337c0.036-0.09,0.085-0.176,0.146-0.254c0.073-0.095,0.165-0.182,0.273-0.26
		c0.183-0.13,0.415-0.235,0.688-0.31c0.17-0.047,0.359-0.083,0.56-0.106c0.197-0.023,0.411-0.035,0.635-0.035
		c0.052,0,0.105,0,0.159,0.002c0.459,0.011,0.971,0.068,1.521,0.171C153.286,10.221,153.226,10.336,153.165,10.448z M154.105,8.373
		c-2.054-1.175-2.651-2.313-2.486-3.038c0.118-0.519,0.645-0.91,1.225-0.91c0.257,0,0.628,0.082,0.93,0.474
		C154.281,5.557,154.394,6.795,154.105,8.373z M163.412,6.888c0.542,0,0.98,0.439,0.98,0.98s-0.439,0.98-0.98,0.98
		s-0.98-0.439-0.98-0.98S162.871,6.888,163.412,6.888z M164.429,21.592c-4.646,0-8.412-3.766-8.412-8.412
		c0-1.713,0.564-3.406,1.391-4.635c1.53,11.007,11.724,11.61,11.724,11.61C167.79,21.063,166.171,21.592,164.429,21.592z
		 M169.497,12.645c-0.026,0.027-0.642,0.667-1.705,0.983c-0.339,0.101-0.749,0.175-1.218,0.175c-0.869,0-1.942-0.256-3.148-1.08
		c-0.262-0.179-0.33-0.536-0.151-0.798s0.536-0.33,0.798-0.151c2.771,1.891,4.52,0.151,4.593,0.077
		c0.218-0.23,0.581-0.238,0.811-0.02C169.707,12.05,169.715,12.415,169.497,12.645z M169.417,8.849c-0.541,0-0.98-0.439-0.98-0.98
		s0.439-0.98,0.98-0.98c0.542,0,0.98,0.439,0.98,0.98S169.958,8.849,169.417,8.849z"/>
	<path fill="#184C8D" d="M123.653,36.737c-0.047,0-0.094-0.002-0.141-0.007l-0.111-0.012c-0.745-0.08-1.283-0.749-1.203-1.493
		s0.749-1.283,1.494-1.203l0.098,0.011c0.745,0.077,1.287,0.743,1.21,1.487C124.929,36.218,124.34,36.737,123.653,36.737z"/>
	<path fill="#184C8D" d="M129.026,36.626c-0.672,0-1.256-0.5-1.344-1.184c-0.095-0.743,0.43-1.422,1.172-1.518l0.099-0.013
		c0.743-0.099,1.424,0.423,1.522,1.166c0.099,0.742-0.424,1.424-1.166,1.522l-0.11,0.015
		C129.142,36.623,129.083,36.626,129.026,36.626z"/>
	<path fill="#184C8D" d="M134.396,35.477c-0.587,0-1.128-0.384-1.301-0.976c-0.211-0.719,0.201-1.472,0.92-1.682l0.101-0.029
		c0.719-0.211,1.473,0.201,1.683,0.919s-0.201,1.472-0.919,1.683l-0.103,0.03C134.65,35.459,134.522,35.477,134.396,35.477z"/>
	<path fill="#184C8D" d="M118.374,35.315c-0.195,0-0.394-0.042-0.582-0.132l-0.104-0.049c-0.674-0.327-0.956-1.138-0.629-1.812
		c0.326-0.674,1.138-0.956,1.812-0.629l0.087,0.042c0.676,0.322,0.963,1.131,0.642,1.807
		C119.367,35.029,118.881,35.315,118.374,35.315z"/>
	<path fill="#184C8D" d="M99.738,33.838c-0.514,0-1.006-0.294-1.233-0.792c-0.312-0.681-0.014-1.486,0.667-1.797l0.097-0.045
		c0.681-0.311,1.485-0.011,1.797,0.669c0.312,0.681,0.012,1.486-0.669,1.797l-0.096,0.043
		C100.119,33.798,99.927,33.838,99.738,33.838z"/>
	<path fill="#184C8D" d="M139.573,33.637c-0.531,0-1.036-0.314-1.253-0.836c-0.287-0.691,0.041-1.485,0.733-1.772l0.095-0.04
		c0.69-0.289,1.485,0.038,1.773,0.729c0.289,0.691-0.038,1.485-0.729,1.773l-0.101,0.042
		C139.923,33.604,139.747,33.637,139.573,33.637z"/>
	<path fill="#184C8D" d="M114.029,32.021c-0.379,0-0.756-0.158-1.024-0.466l-0.076-0.089c-0.487-0.569-0.42-1.425,0.149-1.912
		c0.569-0.486,1.426-0.419,1.912,0.15l0.062,0.072c0.491,0.565,0.431,1.422-0.134,1.913
		C114.661,31.912,114.344,32.021,114.029,32.021z"/>
	<path fill="#184C8D" d="M109.77,29.167c-0.379,0-0.756-0.158-1.024-0.466l-0.076-0.088c-0.486-0.569-0.419-1.425,0.15-1.912
		c0.569-0.486,1.425-0.419,1.912,0.15l0.062,0.072c0.491,0.565,0.431,1.422-0.135,1.913
		C110.401,29.058,110.085,29.167,109.77,29.167z"/>
	<path fill="#184C8D" d="M104.736,31.537c-0.511,0-1-0.29-1.23-0.784c-0.315-0.679-0.021-1.485,0.657-1.802l0.093-0.043
		c0.678-0.317,1.485-0.026,1.803,0.652c0.318,0.678,0.026,1.485-0.651,1.803l-0.1,0.046
		C105.123,31.496,104.928,31.537,104.736,31.537z"/>
	<path fill="#184C8D" d="M144.558,31.322c-0.492,0-0.968-0.27-1.208-0.738c-0.341-0.667-0.077-1.484,0.59-1.825l0.093-0.048
		c0.666-0.342,1.483-0.079,1.825,0.587c0.342,0.667,0.079,1.484-0.588,1.826l-0.095,0.049
		C144.977,31.274,144.766,31.322,144.558,31.322z"/>
	<path fill="#184C8D" d="M114.601,26.663c-0.484,0-0.952-0.259-1.196-0.716c-0.354-0.66-0.105-1.482,0.555-1.835l0.094-0.05
		c0.661-0.353,1.482-0.104,1.836,0.556c0.353,0.66,0.104,1.482-0.557,1.835l-0.093,0.05
		C115.036,26.611,114.816,26.663,114.601,26.663z"/>
	<path fill="#184C8D" d="M119.38,23.939c-0.456,0-0.901-0.23-1.157-0.647c-0.392-0.639-0.191-1.473,0.447-1.865l0.089-0.054
		c0.638-0.393,1.473-0.193,1.865,0.445c0.392,0.638,0.192,1.473-0.445,1.865l-0.092,0.056
		C119.866,23.875,119.621,23.939,119.38,23.939z"/>
	<path fill="#184C8D" d="M110.233,21.917c-0.716,0-1.315-0.561-1.353-1.285l-0.005-0.112c-0.036-0.748,0.541-1.383,1.289-1.419
		c0.748-0.035,1.384,0.542,1.419,1.29l0.005,0.099c0.039,0.748-0.535,1.386-1.283,1.426
		C110.281,21.916,110.257,21.917,110.233,21.917z"/>
	<path fill="#184C8D" d="M123.927,20.848c-0.406,0-0.808-0.182-1.075-0.528c-0.457-0.593-0.347-1.445,0.246-1.902l0.083-0.063
		c0.593-0.458,1.444-0.349,1.901,0.244c0.458,0.593,0.349,1.444-0.244,1.902l-0.085,0.065
		C124.507,20.756,124.216,20.848,123.927,20.848z"/>
	<path fill="#184C8D" d="M127.902,17.07c-0.293,0-0.588-0.094-0.837-0.289c-0.589-0.462-0.691-1.315-0.229-1.904l0.059-0.075
		c0.458-0.593,1.31-0.702,1.902-0.245s0.702,1.309,0.244,1.902l-0.071,0.092C128.702,16.893,128.304,17.07,127.902,17.07z"/>
	<path fill="#184C8D" d="M110.67,16.451c-0.095,0-0.19-0.01-0.286-0.03c-0.732-0.157-1.199-0.877-1.042-1.61l0.024-0.11
		c0.161-0.731,0.884-1.194,1.615-1.033s1.194,0.884,1.033,1.615l-0.021,0.096C111.857,16.016,111.295,16.451,110.67,16.451z"/>
	<path fill="#184C8D" d="M129.65,12.036c-0.662,0-1.241-0.485-1.34-1.16c-0.003-0.025-0.007-0.049-0.011-0.074
		c-0.125-0.738,0.372-1.438,1.11-1.564c0.738-0.125,1.438,0.372,1.563,1.11c0.008,0.045,0.015,0.09,0.021,0.135
		c0.108,0.741-0.404,1.43-1.146,1.538C129.781,12.031,129.715,12.036,129.65,12.036z"/>
	<path fill="#184C8D" d="M112.575,11.317c-0.227,0-0.457-0.057-0.668-0.177c-0.651-0.369-0.88-1.197-0.51-1.848l0.056-0.099
		c0.374-0.649,1.202-0.873,1.852-0.5c0.649,0.373,0.873,1.202,0.5,1.851l-0.049,0.085C113.506,11.07,113.047,11.317,112.575,11.317z
		"/>
	<path fill="#184C8D" d="M126.584,7.645c-0.285,0-0.571-0.089-0.816-0.274l-0.075-0.056c-0.602-0.445-0.728-1.295-0.283-1.896
		c0.446-0.602,1.295-0.728,1.897-0.282l0.094,0.07c0.598,0.451,0.717,1.301,0.266,1.899C127.4,7.459,126.994,7.645,126.584,7.645z"
		/>
	<path fill="#184C8D" d="M116.196,7.245c-0.436,0-0.862-0.209-1.125-0.597c-0.419-0.62-0.257-1.463,0.363-1.883
		c0.034-0.022,0.067-0.045,0.101-0.067c0.625-0.413,1.466-0.241,1.879,0.384c0.413,0.625,0.241,1.466-0.384,1.878l-0.075,0.05
		C116.722,7.169,116.457,7.245,116.196,7.245z"/>
	<path fill="#184C8D" d="M121.494,5.796c-0.03,0-0.061-0.001-0.091-0.003c-0.03-0.002-0.059-0.003-0.088-0.005
		c-0.748-0.041-1.321-0.679-1.281-1.427c0.04-0.748,0.68-1.321,1.427-1.281c0.041,0.002,0.082,0.004,0.123,0.007
		c0.747,0.049,1.312,0.695,1.263,1.443C122.798,5.247,122.202,5.796,121.494,5.796z"/>
	<path fill="#184C8D" d="M149.395,28.65c-0.464,0-0.916-0.238-1.169-0.666c-0.381-0.645-0.167-1.476,0.478-1.857l0.049-0.029
		c0.644-0.383,1.476-0.171,1.858,0.473c0.383,0.644,0.171,1.476-0.473,1.858l-0.055,0.032
		C149.866,28.59,149.629,28.65,149.395,28.65z"/>
	<g>
		<path fill="#184C8D" d="M94.274,33.51l-0.046,0.021c-0.24,0.113-0.432,0.289-0.564,0.498c-1.693,1.138-3.408,1.975-5.242,2.536
			c-0.142-1.182-0.709-2.128-1.514-2.791l0.189-0.047c12.961-5.866,17.691-21.334,9.271-21.334c-6.48,0-11.921,8.609-16.367,13.813
			l0,0l-0.331,0.378c-4.683,5.393-8.562,8.562-13.197,9.981c-0.143-1.182-0.71-2.128-1.514-2.791l0.189-0.047
			c12.962-5.866,17.692-21.334,9.272-21.334c-6.481,0-11.92,8.609-16.367,13.813l0,0h0l-0.331,0.378
			c-3.548,4.115-7.001,7.379-9.177,7.379c-1.088,0-1.703-0.757-0.567-2.696l10.501-18.401H53.56l-8.752,15.279
			c-3.736,3.406-6.622,5.298-7.568,4.872c-1.229-0.52,0-2.365,0.615-3.406l9.603-16.746h-4.92l-9.649,16.698
			c-2.508,4.352-1.372,7.427,1.892,7.427c2.696,0,5.724-2.459,8.089-4.73c-0.473,2.649,1.088,4.73,4.21,4.73
			c4.068,0,8.751-4.352,12.819-9.082l0,0c0,0,0,0,0.001,0c2.791-3.217,10.927-13.86,13.481-11.306
			c2.933,2.933-5.866,12.725-13.813,15.374l0.332,2.933l-0.048,0.047h0.048h0.094c1.75-0.142,3.5,0.993,2.696,2.649
			c-6.717,2.034-10.927,4.778-10.927,8.467c0,4.73,7.474,5.818,10.975-0.284l2.602-4.542c0.379-0.709,0.662-1.324,0.852-1.939
			c5.203-1.608,10.218-5.109,15.657-11.4v0c2.791-3.217,10.928-13.86,13.481-11.305c2.934,2.933-5.865,12.725-13.812,15.374
			l0.331,2.933L81.8,34.958h0.047h0.095c1.75-0.142,3.501,0.993,2.696,2.649c-6.717,2.034-10.927,4.778-10.927,8.467
			c0,4.73,7.474,5.818,10.974-0.284l2.602-4.542c0.378-0.709,0.662-1.324,0.852-1.939c2.235-0.691,4.437-1.734,6.651-3.195
			c0.006,0,0.011,0,0.017,0c0.193,0,0.391-0.042,0.577-0.129l0.049-0.023c0.677-0.32,0.967-1.128,0.646-1.805
			C95.76,33.48,94.951,33.19,94.274,33.51z M58.432,44.939c-1.088,1.845-2.696,1.561-2.696,0.236c0-1.277,1.183-2.744,5.014-4.21
			L58.432,44.939z M80.38,44.939c-1.088,1.845-2.696,1.561-2.696,0.236c0-1.277,1.183-2.744,5.014-4.21L80.38,44.939z"/>
		<path fill="#184C8D" d="M27.826,15.8C37.76,12.441,38.517,0,28.725,0c-2.696,0-5.913,1.892-8.136,5.771L7.344,28.667
			c-0.615,1.088-1.23,1.987-1.893,2.791c-3.406-4.683-2.412-11.684,2.365-14.759L5.83,14.191
			c-10.312,6.575-7.285,25.544,9.934,25.544C30.475,39.735,37.287,22.091,27.826,15.8z M15.669,35.951
			c-2.933,0-5.251-0.662-7.096-1.703c0.852-0.993,1.703-2.223,2.46-3.5l8.278-14.333l1.324,0.142
			C32.178,18.969,27.59,35.951,15.669,35.951z M20.967,13.529l3.974-6.812c3.595-6.197,8.184-2.555,5.724,2.082
			C28.772,12.347,25.981,13.435,20.967,13.529z"/>
	</g>
</g>
</svg>
