<?xml version="1.0" encoding="utf-8"?>
<!-- Generator: Adobe Illustrator 16.0.0, SVG Export Plug-In . SVG Version: 6.00 Build 0)  -->
<!DOCTYPE svg PUBLIC "-//W3C//DTD SVG 1.1//EN" "http://www.w3.org/Graphics/SVG/1.1/DTD/svg11.dtd">
<svg version="1.1" id="Layer_1" xmlns="http://www.w3.org/2000/svg" xmlns:xlink="http://www.w3.org/1999/xlink" x="0px" y="0px"
	 width="176px" height="50px" viewBox="0 0 176 50" enable-background="new 0 0 176 50" xml:space="preserve">
<g>
	<g>
		<path fill="#174D8C" d="M99.71,33.721c-0.474,0-0.934-0.249-1.182-0.692c-0.367-0.653-0.136-1.479,0.518-1.846l0.083-0.046
			c0.652-0.368,1.479-0.138,1.847,0.515c0.368,0.651,0.137,1.479-0.515,1.847l-0.087,0.049
			C100.163,33.665,99.935,33.721,99.71,33.721z M104.056,31.102c-0.446,0-0.884-0.22-1.143-0.624
			c-0.404-0.63-0.222-1.469,0.408-1.873l0.08-0.052c0.63-0.405,1.469-0.224,1.874,0.406c0.406,0.629,0.224,1.469-0.405,1.874
			l-0.084,0.054C104.56,31.032,104.306,31.102,104.056,31.102z M108.257,28.257c-0.424,0-0.842-0.198-1.106-0.57
			c-0.434-0.61-0.291-1.457,0.319-1.891l0.079-0.056c0.609-0.435,1.456-0.292,1.891,0.318c0.435,0.61,0.292,1.457-0.318,1.891
			l-0.081,0.058C108.803,28.176,108.528,28.257,108.257,28.257z M112.327,25.228c-0.404,0-0.805-0.18-1.072-0.524
			c-0.459-0.592-0.352-1.443,0.24-1.902l0.077-0.06c0.592-0.459,1.443-0.353,1.903,0.239c0.459,0.591,0.352,1.443-0.24,1.902
			l-0.077,0.06C112.91,25.134,112.617,25.228,112.327,25.228z M116.276,22.04c-0.388,0-0.771-0.165-1.04-0.484
			c-0.48-0.574-0.406-1.429,0.168-1.91l0.074-0.062c0.573-0.481,1.429-0.406,1.91,0.167c0.482,0.574,0.407,1.429-0.167,1.911
			l-0.075,0.063C116.892,21.936,116.583,22.04,116.276,22.04z M120.105,18.709c-0.37,0-0.739-0.15-1.006-0.447
			c-0.502-0.556-0.458-1.413,0.097-1.915l0.073-0.066c0.556-0.501,1.414-0.458,1.916,0.098s0.458,1.413-0.098,1.915l-0.072,0.065
			C120.754,18.594,120.429,18.709,120.105,18.709z"/>
		<path fill="#174D8C" d="M123.808,15.249c-0.151,0-0.303-0.025-0.454-0.079c-0.1-0.036-0.193-0.082-0.278-0.136
			c-0.087-0.053-0.168-0.118-0.244-0.193c-0.53-0.528-0.532-1.387-0.004-1.917l0.031-0.031c0.447-0.454,1.149-0.536,1.688-0.196
			c0.54,0.34,0.77,1.009,0.553,1.607l-0.015,0.042C124.889,14.902,124.366,15.249,123.808,15.249z"/>
		<path fill="#174D8C" d="M130.533,36.875c-0.676,0-1.26-0.504-1.344-1.192c-0.09-0.744,0.438-1.419,1.182-1.51l0.098-0.012
			c0.743-0.094,1.422,0.43,1.518,1.173c0.095,0.743-0.43,1.422-1.173,1.517l-0.115,0.015
			C130.644,36.872,130.589,36.875,130.533,36.875z M125.167,36.157c-0.214,0-0.43-0.051-0.633-0.157
			c-0.04-0.021-0.079-0.042-0.118-0.063c-0.655-0.363-0.892-1.188-0.529-1.843c0.362-0.656,1.188-0.893,1.843-0.53
			c0.024,0.014,0.048,0.026,0.072,0.04c0.662,0.35,0.915,1.17,0.564,1.833C126.124,35.895,125.654,36.157,125.167,36.157z
			 M135.955,35.469c-0.552,0-1.07-0.339-1.272-0.886c-0.259-0.703,0.1-1.482,0.802-1.742l0.098-0.036
			c0.702-0.261,1.482,0.096,1.744,0.798s-0.096,1.482-0.798,1.743l-0.104,0.039C136.269,35.443,136.111,35.469,135.955,35.469z
			 M141.087,33.207c-0.496,0-0.975-0.273-1.212-0.747c-0.336-0.669-0.067-1.484,0.602-1.821l0.095-0.047
			c0.668-0.338,1.484-0.07,1.821,0.599c0.338,0.669,0.069,1.484-0.599,1.822l-0.098,0.049
			C141.5,33.161,141.292,33.207,141.087,33.207z M121.937,31.772c-0.594,0-1.14-0.394-1.306-0.995
			c-0.011-0.039-0.021-0.079-0.032-0.118c-0.192-0.724,0.239-1.466,0.963-1.658s1.466,0.239,1.657,0.962l0.025,0.091
			c0.2,0.722-0.224,1.469-0.945,1.668C122.178,31.757,122.057,31.772,121.937,31.772z M146.004,30.505
			c-0.463,0-0.915-0.238-1.167-0.666c-0.381-0.645-0.168-1.475,0.477-1.857l0.092-0.054c0.644-0.382,1.475-0.17,1.857,0.475
			c0.382,0.644,0.169,1.475-0.475,1.857l-0.094,0.056C146.477,30.445,146.238,30.505,146.004,30.505z M121.498,26.202
			c-0.028,0-0.055,0-0.083-0.002c-0.748-0.045-1.317-0.688-1.272-1.435l0.008-0.114c0.048-0.748,0.691-1.312,1.439-1.266
			c0.748,0.048,1.314,0.693,1.266,1.44l-0.006,0.103C122.806,25.647,122.209,26.202,121.498,26.202z M122.304,20.653
			c-0.095,0-0.192-0.011-0.29-0.032c-0.731-0.16-1.195-0.882-1.036-1.614l0.023-0.108c0.161-0.731,0.884-1.193,1.615-1.032
			c0.731,0.161,1.194,0.884,1.032,1.615l-0.022,0.103C123.489,20.219,122.928,20.653,122.304,20.653z"/>
		<path fill="#174D8C" d="M150.78,27.524c-0.442,0-0.875-0.216-1.136-0.613c-0.41-0.626-0.235-1.467,0.392-1.877l0.044-0.029
			c0.626-0.41,1.467-0.234,1.877,0.393c0.41,0.626,0.234,1.467-0.393,1.877l-0.042,0.028
			C151.292,27.453,151.035,27.524,150.78,27.524z"/>
	</g>
	<path fill="#174D8C" d="M165.396,2.262c-3.212,0-6.083,1.445-7.981,3.712c-0.065-0.801-0.284-1.558-0.748-2.16
		c-0.512-0.666-1.247-1.032-2.066-1.032c-1.25,0-2.352,0.852-2.618,2.026c-0.132,0.582-0.121,1.497,0.688,2.555
		c0.151,0.198,0.327,0.394,0.523,0.586c-0.16,0.007-0.316,0.019-0.466,0.035c-0.264,0.031-0.516,0.079-0.75,0.143
		c-0.428,0.118-0.806,0.292-1.122,0.518c-0.222,0.159-0.415,0.344-0.573,0.55c-0.142,0.184-0.257,0.386-0.343,0.6
		c-0.098,0.246-0.156,0.506-0.173,0.775c-0.012,0.182-0.005,0.367,0.021,0.552c0.025,0.178,0.067,0.356,0.126,0.529
		c0.095,0.279,0.231,0.543,0.404,0.784c0.142,0.196,0.306,0.374,0.488,0.527c0.176,0.147,0.367,0.272,0.569,0.371
		c0.213,0.104,0.439,0.177,0.67,0.219c0.152,0.028,0.31,0.042,0.467,0.042c0.291,0,0.584-0.048,0.874-0.144
		c0.232-0.076,0.464-0.184,0.689-0.32c0.13-0.079,0.261-0.168,0.388-0.268c0.141-0.109,0.282-0.232,0.417-0.365
		c0.054-0.053,0.108-0.108,0.161-0.165c-0.001,0.054-0.002,0.108-0.002,0.163c0,2.288,0.758,4.399,2.043,6.104
		c-1,4.13-2.693,5.027-2.693,5.027c4.146,0,5.924-2.208,6.128-2.101c1.454,0.769,3.115,1.204,4.879,1.204
		c5.719,0,10.357-4.582,10.357-10.234C175.753,6.844,171.115,2.262,165.396,2.262z M154.9,9.935
		c-0.063,0.117-0.129,0.231-0.195,0.339c-0.051,0.084-0.103,0.167-0.154,0.246c-0.047,0.071-0.094,0.141-0.141,0.207
		c-0.087,0.124-0.178,0.242-0.268,0.35c-0.054,0.064-0.108,0.127-0.163,0.186c-0.05,0.055-0.103,0.108-0.153,0.158
		c-0.095,0.093-0.192,0.178-0.288,0.252c-0.082,0.063-0.164,0.12-0.245,0.168c-0.127,0.078-0.255,0.137-0.38,0.178
		c-0.137,0.045-0.273,0.068-0.404,0.068c-0.066,0-0.132-0.006-0.197-0.018c-0.194-0.036-0.376-0.124-0.54-0.26
		c-0.087-0.074-0.167-0.16-0.236-0.255c-0.086-0.12-0.154-0.25-0.201-0.389c-0.056-0.166-0.08-0.337-0.07-0.498
		c0.007-0.111,0.031-0.217,0.07-0.315c0.034-0.084,0.08-0.165,0.136-0.238c0.068-0.089,0.154-0.171,0.256-0.243
		c0.172-0.123,0.389-0.221,0.646-0.291c0.16-0.044,0.336-0.078,0.525-0.1c0.185-0.021,0.385-0.032,0.594-0.032
		c0.049,0,0.099,0,0.149,0.001c0.431,0.01,0.911,0.064,1.426,0.16C155.015,9.721,154.958,9.83,154.9,9.935z M155.782,7.99
		c-1.926-1.102-2.485-2.168-2.331-2.847c0.11-0.486,0.604-0.853,1.148-0.853c0.242,0,0.589,0.077,0.872,0.444
		C155.947,5.35,156.052,6.51,155.782,7.99z M164.505,6.597c0.508,0,0.919,0.412,0.919,0.919s-0.412,0.919-0.919,0.919
		s-0.919-0.412-0.919-0.919S163.998,6.597,164.505,6.597z M165.458,20.379c-4.354,0-7.884-3.529-7.884-7.884
		c0-1.605,0.529-3.192,1.303-4.344c1.434,10.316,10.989,10.881,10.989,10.881C168.608,19.883,167.092,20.379,165.458,20.379z
		 M170.208,11.993c-0.024,0.026-0.602,0.626-1.598,0.922c-0.317,0.094-0.701,0.165-1.141,0.165c-0.814,0-1.821-0.24-2.952-1.012
		c-0.246-0.167-0.309-0.502-0.141-0.748c0.167-0.246,0.502-0.309,0.748-0.141c2.598,1.772,4.237,0.142,4.305,0.071
		c0.205-0.216,0.544-0.223,0.76-0.019C170.405,11.436,170.413,11.777,170.208,11.993z M170.133,8.435
		c-0.508,0-0.919-0.412-0.919-0.919s0.412-0.919,0.919-0.919c0.507,0,0.919,0.412,0.919,0.919S170.641,8.435,170.133,8.435z"/>
	<g>
		<path fill="#174D8C" d="M94.618,33.509l-0.046,0.021c-0.24,0.113-0.431,0.289-0.564,0.498c-1.693,1.138-3.408,1.975-5.242,2.536
			c-0.142-1.183-0.709-2.128-1.514-2.791l0.189-0.047c12.96-5.865,17.691-21.333,9.271-21.333c-6.48,0-11.92,8.609-16.366,13.812
			l0,0l-0.331,0.378c-4.683,5.392-8.562,8.562-13.198,9.98c-0.141-1.183-0.709-2.128-1.513-2.791l0.189-0.047
			c12.96-5.865,17.691-21.333,9.271-21.333c-6.48,0-11.92,8.609-16.366,13.812l0,0l0,0l-0.332,0.378
			c-3.547,4.114-7,7.379-9.177,7.379c-1.088,0-1.703-0.757-0.567-2.696l10.501-18.401h-4.919l-8.75,15.279
			c-3.737,3.405-6.623,5.298-7.568,4.872c-1.23-0.521,0-2.365,0.615-3.406l9.603-16.745h-4.919l-9.65,16.697
			c-2.507,4.352-1.371,7.427,1.892,7.427c2.696,0,5.724-2.46,8.089-4.73c-0.473,2.649,1.088,4.73,4.21,4.73
			c4.068,0,8.751-4.352,12.819-9.083l0,0l0,0c2.791-3.217,10.927-13.859,13.482-11.305c2.932,2.933-5.866,12.724-13.812,15.373
			l0.331,2.933l-0.047,0.047h0.047h0.095c1.75-0.142,3.5,0.994,2.696,2.649c-6.717,2.034-10.926,4.778-10.926,8.467
			c0,4.73,7.474,5.818,10.974-0.284l2.601-4.542c0.378-0.709,0.663-1.324,0.852-1.939c5.203-1.608,10.217-5.109,15.657-11.4l0,0
			c2.792-3.217,10.927-13.859,13.481-11.305c2.932,2.933-5.866,12.724-13.813,15.373l0.332,2.933l-0.047,0.047h0.047h0.095
			c1.75-0.142,3.5,0.994,2.696,2.649c-6.717,2.034-10.927,4.778-10.927,8.467c0,4.73,7.474,5.818,10.974-0.284l2.602-4.542
			c0.378-0.709,0.662-1.324,0.851-1.939c2.236-0.691,4.437-1.734,6.652-3.195c0.005,0,0.011,0,0.017,0
			c0.193,0,0.39-0.041,0.577-0.129l0.049-0.023c0.677-0.32,0.966-1.128,0.646-1.805C96.103,33.479,95.295,33.189,94.618,33.509z
			 M58.777,44.937c-1.088,1.844-2.696,1.561-2.696,0.237c0-1.277,1.183-2.744,5.014-4.21L58.777,44.937z M80.725,44.937
			c-1.088,1.844-2.696,1.561-2.696,0.237c0-1.277,1.182-2.744,5.014-4.21L80.725,44.937z"/>
		<path fill="#174D8C" d="M28.173,15.799C38.106,12.44,38.863,0,29.071,0c-2.696,0-5.913,1.892-8.136,5.771L7.69,28.666
			c-0.614,1.087-1.23,1.986-1.892,2.791c-3.406-4.683-2.413-11.684,2.365-14.758l-1.987-2.507
			c-10.312,6.575-7.284,25.543,9.934,25.543C30.822,39.734,37.633,22.09,28.173,15.799z M16.016,35.95
			c-2.933,0-5.25-0.663-7.095-1.703c0.852-0.994,1.703-2.223,2.46-3.5l8.278-14.332l1.324,0.142
			C32.524,18.968,27.936,35.95,16.016,35.95z M21.313,13.528l3.973-6.812c3.595-6.197,8.184-2.554,5.724,2.082
			C29.118,12.346,26.328,13.434,21.313,13.528z"/>
	</g>
</g>
</svg>
