<?xml version="1.0" encoding="utf-8"?>
<!-- Generator: Adobe Illustrator 16.0.0, SVG Export Plug-In . SVG Version: 6.00 Build 0)  -->
<!DOCTYPE svg PUBLIC "-//W3C//DTD SVG 1.1//EN" "http://www.w3.org/Graphics/SVG/1.1/DTD/svg11.dtd">
<svg version="1.1" id="Layer_1" xmlns="http://www.w3.org/2000/svg" xmlns:xlink="http://www.w3.org/1999/xlink" x="0px" y="0px"
	 width="30px" height="30px" viewBox="0 0 30 30" enable-background="new 0 0 30 30" xml:space="preserve">
<g>
	<path fill="#4BB7DA" d="M15.457,0C7.423,0,0.913,6.433,0.913,14.37c0,3.213,1.065,6.178,2.869,8.572C2.377,28.741,0,30,0,30
		c5.823,0,8.319-3.101,8.605-2.95c2.042,1.08,4.374,1.69,6.852,1.69C23.488,28.741,30,22.308,30,14.37C30,6.433,23.488,0,15.457,0z
		 M23.406,20.067c-0.688,1.172-3.071,0.737-4.188,0.737c-2.301,0-4.603,0-6.904,0c-1.244,0-2.829,0.273-4.053-0.048
		C6.486,20.29,7.18,16.476,7.18,15.146c0-0.44,4.138-0.205,4.729-0.205c0.379,0,1.428-0.231,1.428,0.229
		c0,0.81-0.227,1.823,0.857,1.823c0.876,0,1.752,0,2.628,0c1.223,0,0.188-1.612,0.619-2.052c0.316-0.322,2.628,0,3.078,0
		c1.026,0,2.052,0,3.079,0c0,0.781,0,1.562,0,2.342C23.598,18.063,23.827,19.351,23.406,20.067z M14.533,14.94
		c0.676,0,1.352,0,2.028,0c0,0.491,0.257,1.173-0.317,1.173c-0.314,0-1.829,0.212-2.028,0C13.943,15.824,14.111,14.94,14.533,14.94z
		 M23.364,14.061c-1.575,0-3.15,0-4.725,0c-3.785,0-7.569,0-11.354,0c-0.193,0-0.235-3.701,0.086-4.247
		c0.564-0.96,1.808-0.737,2.745-0.737c0.496,0,0.993,0,1.489,0c0.442,0,0.266-0.322,0.266-0.733c0-0.899,0.105-1.613,1.172-1.613
		c1.06,0,2.121,0,3.181,0c0.613,0,1.55-0.18,2.143,0.064c0.694,0.286,0.452,2.281,0.664,2.281c1.292,0,4.567-0.593,4.567,1.466
		C23.598,11.13,23.892,14.061,23.364,14.061z"/>
	<path fill="#4BB7DA" d="M17.734,7.904c-0.28-0.328-2.85,0-3.305,0c-0.455,0-0.909,0-1.364,0c-0.045,0-0.021,1.039-0.021,1.173
		c1.102,0,2.203,0,3.305,0c0.455,0,0.909,0,1.364,0C17.702,9.077,17.813,7.997,17.734,7.904z"/>
</g>
</svg>
