<?xml version="1.0" encoding="utf-8"?>
<!-- Generator: Adobe Illustrator 16.0.0, SVG Export Plug-In . SVG Version: 6.00 Build 0)  -->
<!DOCTYPE svg PUBLIC "-//W3C//DTD SVG 1.1//EN" "http://www.w3.org/Graphics/SVG/1.1/DTD/svg11.dtd">
<svg version="1.1" id="Layer_1" xmlns="http://www.w3.org/2000/svg" xmlns:xlink="http://www.w3.org/1999/xlink" x="0px" y="0px"
	 width="30px" height="30px" viewBox="0 0 30 30" enable-background="new 0 0 30 30" xml:space="preserve">
<path fill="#AAAAAA" d="M15.457,0C7.423,0,0.913,6.433,0.913,14.37c0,3.213,1.065,6.178,2.869,8.571C2.377,28.74,0,30,0,30
	c5.823,0,8.319-3.102,8.605-2.949c2.042,1.079,4.373,1.689,6.851,1.689C23.488,28.74,30,22.309,30,14.37C30,6.433,23.488,0,15.457,0
	z M9.314,16.209c-1.002,0-1.814-0.812-1.814-1.814s0.812-1.814,1.814-1.814s1.814,0.812,1.814,1.814
	C11.129,15.397,10.317,16.209,9.314,16.209z M15.363,16.209c-1.002,0-1.814-0.812-1.814-1.814s0.812-1.814,1.814-1.814
	c1.002,0,1.815,0.812,1.815,1.814S16.365,16.209,15.363,16.209z M21.411,16.209c-1.002,0-1.813-0.812-1.813-1.814
	s0.812-1.814,1.813-1.814c1.003,0,1.813,0.812,1.813,1.814C23.227,15.397,22.414,16.209,21.411,16.209z"/>
</svg>
