<?xml version="1.0" encoding="utf-8"?>
<!-- Generator: Adobe Illustrator 16.0.0, SVG Export Plug-In . SVG Version: 6.00 Build 0)  -->
<!DOCTYPE svg PUBLIC "-//W3C//DTD SVG 1.1//EN" "http://www.w3.org/Graphics/SVG/1.1/DTD/svg11.dtd">
<svg version="1.1" id="Layer_1" xmlns="http://www.w3.org/2000/svg" xmlns:xlink="http://www.w3.org/1999/xlink" x="0px" y="0px"
	 width="30px" height="30px" viewBox="0 0 30 30" enable-background="new 0 0 30 30" xml:space="preserve">
<path fill="#63BC5F" d="M15.457,0C7.423,0,0.913,6.433,0.913,14.37c0,3.213,1.065,6.178,2.869,8.572C2.377,28.741,0,30,0,30
	c5.823,0,8.319-3.1,8.605-2.95c2.042,1.08,4.373,1.69,6.851,1.69C23.488,28.741,30,22.308,30,14.37C30,6.433,23.488,0,15.457,0z
	 M8.34,17.11c0.125-0.137,0.236-0.291,0.367-0.422c0.39-0.392,0.784-0.779,1.181-1.164c0.251-0.246,0.509-0.487,0.769-0.725
	c0.086-0.078,0.194-0.133,0.276-0.214c0.108-0.104,0.2-0.223,0.302-0.334c0.196-0.213,0.379-0.441,0.592-0.635
	c0.236-0.214,0.502-0.394,0.749-0.596c0.076-0.061,0.126-0.153,0.199-0.22c0.184-0.168,0.374-0.33,0.559-0.499
	c0.119-0.108,0.248-0.212,0.346-0.339c0.258-0.33,0.59-0.58,0.898-0.856c0.248-0.223,0.499-0.44,0.736-0.673
	c0.278-0.274,0.539-0.564,0.812-0.843c0.076-0.078,0.151-0.136,0.264-0.01c0.191,0.211,0.407,0.398,0.611,0.598
	c0.236,0.23,0.15,0.605-0.159,0.721c-0.074,0.027-0.131,0.095-0.191,0.151c-0.054,0.051-0.097,0.116-0.149,0.17
	c-0.132,0.131-0.271,0.257-0.401,0.391c-0.168,0.177-0.324,0.366-0.502,0.534c-0.454,0.427-0.917,0.846-1.379,1.268
	c-0.022,0.021-0.054,0.032-0.076,0.052c-0.171,0.157-0.333,0.322-0.509,0.47c-0.292,0.246-0.545,0.525-0.798,0.811
	c-0.142,0.163-0.313,0.302-0.471,0.454c-0.043,0.043-0.092,0.085-0.126,0.136c-0.254,0.375-0.617,0.625-0.972,0.892
	c-0.303,0.229-0.573,0.506-0.825,0.789c-0.256,0.288-0.529,0.555-0.814,0.811c-0.112,0.099-0.204,0.222-0.318,0.319
	c-0.12,0.104-0.256,0.188-0.384,0.282c-0.156-0.452-0.497-0.739-0.904-1.013C8.138,17.305,8.245,17.212,8.34,17.11z M17.684,10.909
	c0.204,0.192,0.412,0.382,0.611,0.576c0.236,0.226,0.464,0.458,0.697,0.686c0.085,0.083,0.023,0.132-0.034,0.185
	c-0.276,0.247-0.553,0.495-0.829,0.742c-0.006,0.004-0.009,0.013-0.014,0.014c-0.255,0.045-0.301,0.304-0.458,0.448
	c-0.187,0.167-0.391,0.311-0.582,0.474c-0.181,0.156-0.354,0.323-0.532,0.482c-0.289,0.259-0.583,0.513-0.867,0.776
	c-0.353,0.323-0.695,0.654-1.044,0.978c-0.404,0.373-0.81,0.745-1.22,1.111c-0.359,0.319-0.731,0.624-1.085,0.947
	c-0.302,0.273-0.581,0.569-0.877,0.847c-0.19,0.178-0.396,0.338-0.59,0.511c-0.079,0.07-0.148,0.153-0.257,0.269
	c-0.126-0.655-0.61-0.908-1.166-1.115c0.163-0.171,0.222-0.414,0.494-0.425c0.024-0.001,0.045-0.047,0.07-0.071
	c0.13-0.136,0.265-0.267,0.391-0.406c0.121-0.136,0.222-0.291,0.35-0.419c0.148-0.15,0.316-0.283,0.472-0.423
	c0.033-0.03,0.072-0.057,0.092-0.094c0.114-0.217,0.294-0.372,0.492-0.503c0.335-0.223,0.613-0.497,0.859-0.814
	c0.156-0.2,0.374-0.35,0.558-0.528c0.137-0.131,0.257-0.274,0.394-0.405c0.296-0.28,0.596-0.556,0.898-0.832
	c0.195-0.18,0.395-0.353,0.592-0.53c0.271-0.242,0.549-0.475,0.808-0.728c0.25-0.246,0.482-0.514,0.722-0.771
	c0.091-0.096,0.18-0.193,0.276-0.282C17.164,11.37,17.429,11.137,17.684,10.909z M8.646,22.439
	c-0.148,0.032-0.301,0.044-0.445,0.091c-0.192,0.063-0.63-0.028-0.774-0.176c-0.1-0.105-0.234-0.19-0.31-0.312
	c-0.128-0.208-0.049-0.44-0.003-0.661c0.02-0.105,0.062-0.208,0.074-0.316c0.008-0.08,0.012-0.16,0.02-0.24
	c-0.003,0-0.007,0-0.011-0.001c0.003-0.021,0.008-0.041,0.01-0.06c0.927,0.078,1.397,0.8,1.512,1.657
	C8.694,22.427,8.671,22.434,8.646,22.439z M11.461,21.849c-0.128,0.12-0.324,0.191-0.502,0.232
	c-0.253,0.056-0.516,0.053-0.774,0.092c-0.328,0.049-0.655,0.106-0.982,0.165c-0.207-0.997-0.804-2.095-1.909-2.129
	c0.042-0.267,0.083-0.53,0.124-0.79c0.006-0.036-0.001-0.077,0.001-0.114c0.019-0.331,0.031-0.662,0.061-0.992
	c0.011-0.146,0.067-0.305,0.222-0.346c0.16-0.043,0.319,0.009,0.412,0.166c0.118,0.204,0.318,0.39,0.228,0.657
	c-0.104,0.294,0.039,0.48,0.246,0.644c0.089,0.071,0.18,0.114,0.306,0.031c0.179-0.121,0.364-0.102,0.586-0.051
	c0.47,0.104,0.527,0.429,0.556,0.803c0.002,0.037-0.003,0.075-0.008,0.113c-0.01,0.086-0.058,0.232-0.028,0.25
	c0.123,0.073,0.267,0.14,0.409,0.152c0.29,0.027,0.578-0.043,0.848,0.173C11.484,21.09,11.664,21.656,11.461,21.849z M19.766,14.204
	c-0.191,0.208-0.406,0.395-0.611,0.591c-0.181,0.175-0.363,0.349-0.541,0.526c-0.276,0.273-0.543,0.556-0.825,0.822
	c-0.47,0.442-0.951,0.872-1.423,1.312c-0.082,0.076-0.136,0.182-0.215,0.264c-0.329,0.34-0.655,0.684-0.999,1.012
	c-0.359,0.343-0.74,0.665-1.104,1.004c-0.185,0.172-0.351,0.364-0.53,0.542c-0.44,0.439-0.882,0.874-1.367,1.309
	c-0.065-0.639-0.33-1.108-0.979-1.309c0.117-0.138,0.209-0.262,0.316-0.37c0.522-0.518,1.038-1.037,1.613-1.5
	c0.471-0.381,0.895-0.82,1.339-1.232c0.261-0.242,0.52-0.485,0.784-0.723c0.481-0.43,0.969-0.854,1.446-1.286
	c0.233-0.209,0.446-0.441,0.68-0.647c0.261-0.23,0.538-0.444,0.808-0.666c0.064-0.052,0.124-0.107,0.185-0.162
	c0.259-0.227,0.518-0.453,0.775-0.681c0.107-0.096,0.208-0.201,0.318-0.293c0.028-0.022,0.105-0.028,0.128-0.007
	c0.273,0.249,0.54,0.505,0.812,0.763C20.152,13.745,19.968,13.984,19.766,14.204z M21.486,12.439
	c-0.207,0.219-0.431,0.423-0.676,0.66c-0.133-0.117-0.258-0.221-0.373-0.332c-0.321-0.308-0.635-0.622-0.959-0.928
	c-0.423-0.399-0.873-0.774-1.271-1.195c-0.362-0.38-0.808-0.681-1.072-1.152c-0.044-0.076-0.169-0.101-0.24-0.166
	c-0.19-0.174-0.186-0.195-0.002-0.367c0.169-0.16,0.342-0.319,0.517-0.482c0.358,0.321,0.691,0.615,1.018,0.916
	c0.428,0.395,0.86,0.781,1.267,1.196c0.247,0.252,0.528,0.469,0.732,0.775c0.143,0.214,0.415,0.344,0.628,0.514
	c0.147,0.116,0.303,0.228,0.437,0.359C21.524,12.271,21.522,12.4,21.486,12.439z M22.541,11.302
	c-0.151,0.167-0.285,0.35-0.435,0.518c-0.025,0.027-0.111,0.036-0.142,0.016c-0.275-0.19-0.556-0.372-0.81-0.588
	c-0.31-0.265-0.588-0.565-0.889-0.843c-0.253-0.235-0.524-0.453-0.775-0.688c-0.266-0.245-0.51-0.508-0.775-0.75
	c-0.218-0.201-0.459-0.377-0.683-0.574c-0.205-0.183-0.197-0.286,0.019-0.448c0.175-0.131,0.354-0.254,0.542-0.388
	c0.19,0.148,0.402,0.308,0.609,0.476c0.193,0.158,0.386,0.318,0.565,0.49c0.18,0.172,0.341,0.364,0.519,0.541
	c0.107,0.109,0.233,0.201,0.346,0.306c0.211,0.201,0.418,0.406,0.629,0.608c0.253,0.241,0.507,0.484,0.769,0.717
	c0.146,0.13,0.309,0.245,0.468,0.363C22.589,11.127,22.644,11.189,22.541,11.302z M23.62,8.672c-0.108,0.36-0.122,0.747-0.21,1.113
	c-0.062,0.256-0.168,0.502-0.273,0.746c-0.046,0.111-0.207,0.106-0.324,0.021c-0.237-0.174-0.478-0.342-0.719-0.514
	c-0.035-0.025-0.072-0.051-0.102-0.082c-0.267-0.258-0.531-0.517-0.793-0.776c-0.36-0.355-0.72-0.711-1.077-1.068
	c-0.176-0.176-0.349-0.357-0.526-0.533c-0.028-0.028-0.067-0.045-0.1-0.069c-0.098-0.075-0.203-0.142-0.291-0.228
	c-0.12-0.116-0.077-0.212,0.064-0.278c0.33-0.152,0.66-0.309,0.99-0.458c0.2-0.088,0.403-0.173,0.609-0.244
	c0.117-0.04,0.245-0.048,0.324-0.062c0.34,0.035,0.638,0.04,0.921,0.104c0.175,0.04,0.323,0.195,0.499,0.248
	c0.286,0.088,0.442,0.313,0.594,0.527C23.533,7.58,23.804,8.058,23.62,8.672z"/>
</svg>
