<?xml version="1.0" encoding="utf-8"?>
<!-- Generator: Adobe Illustrator 16.0.0, SVG Export Plug-In . SVG Version: 6.00 Build 0)  -->
<!DOCTYPE svg PUBLIC "-//W3C//DTD SVG 1.1//EN" "http://www.w3.org/Graphics/SVG/1.1/DTD/svg11.dtd">
<svg version="1.1" id="Layer_1" xmlns="http://www.w3.org/2000/svg" xmlns:xlink="http://www.w3.org/1999/xlink" x="0px" y="0px"
	 width="30px" height="30px" viewBox="0 0 30 30" enable-background="new 0 0 30 30" xml:space="preserve">
<path fill="#333333" d="M15.457,0C7.423,0,0.913,6.433,0.913,14.37c0,3.213,1.065,6.178,2.869,8.572C2.377,28.741,0,30,0,30
	c5.823,0,8.319-3.1,8.605-2.95c2.042,1.08,4.373,1.69,6.851,1.69C23.488,28.741,30,22.308,30,14.37C30,6.433,23.488,0,15.457,0z
	 M24.809,11.41l-2.213,2.347c-0.162,0.171-0.399,0.378-0.675,0.618c-0.569,0.496-1.349,1.175-1.47,1.607s0.195,1.417,0.426,2.136
	c0.111,0.348,0.208,0.647,0.257,0.878l0.673,3.128c0.008,0.028,0.013,0.057,0.013,0.088c0,0.162-0.131,0.292-0.293,0.292
	c0,0-0.001,0-0.001,0c-0.042,0-0.085-0.009-0.125-0.028l-2.917-1.38c-0.213-0.101-0.483-0.263-0.796-0.451
	c-0.645-0.387-1.529-0.919-1.983-0.901c-0.448,0.019-1.287,0.623-1.9,1.064c-0.296,0.213-0.551,0.397-0.755,0.516l-2.79,1.62
	c-0.046,0.026-0.096,0.04-0.147,0.04c-0.057,0-0.113-0.017-0.162-0.049c-0.093-0.062-0.143-0.17-0.128-0.281l0.411-3.2
	c0.03-0.234,0.101-0.541,0.183-0.896c0.169-0.736,0.401-1.744,0.245-2.164c-0.156-0.42-0.991-1.032-1.6-1.478
	c-0.294-0.215-0.548-0.402-0.724-0.559l-2.403-2.153c-0.083-0.074-0.117-0.189-0.086-0.296c0.03-0.107,0.118-0.188,0.228-0.209
	l3.17-0.598c0.232-0.043,0.546-0.071,0.909-0.103c0.752-0.066,1.782-0.158,2.134-0.437C12.64,10.282,12.964,9.3,13.2,8.583
	c0.114-0.347,0.213-0.646,0.308-0.861l1.305-2.951c0.045-0.102,0.145-0.169,0.256-0.174c0.111-0.007,0.215,0.054,0.269,0.152
	l1.548,2.831c0.113,0.207,0.236,0.497,0.379,0.833c0.296,0.695,0.701,1.646,1.075,1.895c0.374,0.249,1.408,0.252,2.163,0.255
	c0.365,0.001,0.68,0.003,0.915,0.027l3.209,0.329c0.111,0.012,0.206,0.085,0.245,0.189C24.91,11.211,24.886,11.329,24.809,11.41z"/>
</svg>
