<?xml version="1.0" encoding="utf-8"?>
<!-- Generator: Adobe Illustrator 16.0.0, SVG Export Plug-In . SVG Version: 6.00 Build 0)  -->
<!DOCTYPE svg PUBLIC "-//W3C//DTD SVG 1.1//EN" "http://www.w3.org/Graphics/SVG/1.1/DTD/svg11.dtd">
<svg version="1.1" id="Layer_1" xmlns="http://www.w3.org/2000/svg" xmlns:xlink="http://www.w3.org/1999/xlink" x="0px" y="0px"
	 width="30px" height="30px" viewBox="0 0 30 30" enable-background="new 0 0 30 30" xml:space="preserve">
<path fill="#184C8D" d="M15.457,0C7.423,0,0.913,6.433,0.913,14.37c0,3.213,1.065,6.178,2.869,8.572C2.377,28.741,0,30,0,30
	c5.823,0,8.319-3.101,8.605-2.95c2.042,1.08,4.374,1.69,6.852,1.69C23.488,28.741,30,22.308,30,14.37C30,6.433,23.488,0,15.457,0z
	 M11.071,10.661c-0.192,0.173-0.358,0.375-0.538,0.562c-0.18,0.187-0.361,0.372-0.544,0.556c-0.294,0.295-0.589,0.589-0.885,0.883
	c-0.242,0.239-0.486,0.477-0.726,0.718c-0.075,0.075-0.138,0.16-0.211,0.237c-0.099,0.104-0.188,0.227-0.306,0.301
	c-0.375,0.234-0.39,0.306-0.147,0.669c0.222,0.332,0.416,0.682,0.639,1.012c0.189,0.279,0.407,0.54,0.607,0.812
	c0.378,0.514,0.755,1.029,1.129,1.547c0.159,0.221,0.318,0.442,0.46,0.673c0.161,0.264,0.151,0.348-0.177,0.642
	c-0.189,0.169-0.438,0.27-0.74,0.448c-0.025-0.07-0.033-0.129-0.064-0.17c-0.233-0.3-0.469-0.599-0.708-0.895
	c-0.43-0.533-0.866-1.062-1.29-1.601c-0.105-0.133-0.163-0.302-0.26-0.444c-0.313-0.462-0.632-0.922-0.953-1.38
	c-0.148-0.209-0.308-0.41-0.461-0.615c-0.128-0.171-0.019-0.323,0.074-0.438c0.227-0.278,0.478-0.538,0.726-0.797
	c0.376-0.395,0.755-0.786,1.14-1.173c0.357-0.361,0.725-0.712,1.083-1.072c0.19-0.192,0.37-0.394,0.554-0.592
	c0.076-0.083,0.147-0.17,0.227-0.249c0.261-0.254,0.525-0.505,0.79-0.756c0.113-0.108,0.209-0.086,0.299,0.039
	c0.109,0.151,0.222,0.3,0.341,0.443C11.347,10.28,11.326,10.431,11.071,10.661z M17.4,9.443c-0.108,0.389-0.211,0.782-0.344,1.163
	c-0.162,0.466-0.339,0.926-0.529,1.381c-0.199,0.477-0.424,0.942-0.63,1.416c-0.064,0.146-0.097,0.306-0.156,0.455
	c-0.285,0.728-0.568,1.456-0.863,2.179c-0.166,0.406-0.361,0.799-0.53,1.204c-0.267,0.641-0.518,1.288-0.785,1.928
	c-0.095,0.228-0.225,0.44-0.322,0.667c-0.056,0.13-0.143,0.129-0.241,0.089c-0.272-0.11-0.548-0.217-0.811-0.347
	c-0.211-0.105-0.108-0.294-0.063-0.444c0.085-0.292,0.186-0.58,0.293-0.864c0.072-0.191,0.168-0.372,0.254-0.558
	c0.175-0.381,0.365-0.755,0.521-1.144c0.146-0.364,0.249-0.746,0.383-1.116c0.134-0.373,0.281-0.742,0.426-1.111
	c0.144-0.366,0.292-0.73,0.439-1.095c0.112-0.278,0.22-0.558,0.339-0.833c0.223-0.512,0.456-1.02,0.68-1.532
	c0.215-0.491,0.424-0.985,0.633-1.479c0.068-0.16,0.117-0.329,0.198-0.482c0.027-0.051,0.123-0.066,0.146-0.077
	c0.403,0.029,0.699,0.16,0.917,0.437C17.388,9.321,17.413,9.395,17.4,9.443z M24.691,14.923c-0.254,0.358-0.5,0.724-0.771,1.069
	c-0.503,0.64-1.019,1.271-1.536,1.898c-0.398,0.482-0.799,0.964-1.218,1.429c-0.19,0.211-0.425,0.383-0.641,0.572
	c-0.02,0.017-0.043,0.029-0.072,0.049c-0.035-0.022-0.073-0.037-0.099-0.064c-0.265-0.275-0.593-0.498-0.738-0.871
	c-0.018-0.046-0.014-0.13,0.017-0.163c0.352-0.392,0.713-0.774,1.068-1.164c0.101-0.111,0.202-0.222,0.303-0.333
	c-0.069-0.011-0.066-0.006-0.113-0.042c-0.032,0-0.064,0-0.096,0c0.115-0.103,0.075,0.062,0.144-0.096
	c0.111,0.057,0.072,0.004,0.09,0.111c0.303-0.333,0.606-0.667,0.901-1.008c0.198-0.229,0.365-0.486,0.552-0.726
	c0.118-0.151,0.252-0.289,0.368-0.441c0.111-0.146,0.23-0.294,0.302-0.46c0.035-0.081,0.002-0.23-0.057-0.304
	c-0.294-0.367-0.601-0.725-0.917-1.074c-0.36-0.399-0.708-0.816-1.111-1.168c-0.323-0.282-0.512-0.66-0.811-0.951
	c-0.157-0.154-0.32-0.301-0.477-0.455c-0.236-0.231-0.471-0.463-0.705-0.697c-0.13-0.13-0.097-0.244,0.032-0.356
	c0.239-0.208,0.466-0.43,0.714-0.625c0.049-0.039,0.207-0.021,0.253,0.028c0.559,0.597,1.104,1.207,1.659,1.807
	c0.243,0.263,0.505,0.508,0.75,0.77c0.247,0.263,0.479,0.539,0.723,0.804c0.234,0.253,0.492,0.485,0.711,0.75
	c0.321,0.387,0.661,0.754,0.912,1.204C24.986,14.695,24.797,14.774,24.691,14.923z"/>
</svg>
