<?xml version="1.0" encoding="utf-8"?>
<!-- Generator: Adobe Illustrator 16.0.0, SVG Export Plug-In . SVG Version: 6.00 Build 0)  -->
<!DOCTYPE svg PUBLIC "-//W3C//DTD SVG 1.1//EN" "http://www.w3.org/Graphics/SVG/1.1/DTD/svg11.dtd">
<svg version="1.1" id="Layer_1" xmlns="http://www.w3.org/2000/svg" xmlns:xlink="http://www.w3.org/1999/xlink" x="0px" y="0px"
	 width="30px" height="30px" viewBox="0 0 30 30" enable-background="new 0 0 30 30" xml:space="preserve">
<path fill="#FFFFFF" d="M15.457,0C7.423,0,0.913,6.433,0.913,14.37c0,3.213,1.065,6.178,2.869,8.572C2.377,28.741,0,30,0,30
	c5.823,0,8.319-3.1,8.605-2.95c2.042,1.08,4.373,1.69,6.851,1.69C23.488,28.741,30,22.308,30,14.37C30,6.433,23.488,0,15.457,0z
	 M24.708,15.936c-0.223,0.339,0.089,0.623-0.059,0.956c-0.021,0.749-0.458,0.253-0.871,0.579c-0.42,0.332-0.375-0.102-0.568,0.001
	c-0.02,0.01-0.6,0.894-0.717,1.014c-0.306,0.311-0.773,0.427-1.117,0.727c-0.227,0.197-1.792,0.753-1.69,0.978
	c0.193,0.424-0.266,1.123-0.451,1.462c-0.072,0.332-0.05,0.69-0.05,1.042c0,0.47,0.951,1.49,0.081,1.493
	c-0.585,0.002-2.074-0.363-2.421-0.878c-0.297-0.441-0.332-1.037-0.628-1.497c-0.471-0.445-0.908-1.487-1.55-1.755
	c-0.402-0.167-0.624-1.088-1.067-1.35c-0.4-0.236-0.141-0.773-0.715-0.951c-0.514-0.159-1.001-0.062-1.522,0.051
	c-0.406,0.088-0.74,1.292-1.212,1.018c-0.494-0.287-1.676-0.944-1.791-1.546c-0.04-0.212-0.335-1.082-0.475-1.185
	c-0.442-0.33-0.79-1.076-1.219-1.342c-0.123-0.076-0.725-0.538-0.765-0.652c-0.329-0.927,0.716-0.657,1.241-0.649
	c1.184,0.018,2.368,0.036,3.552,0.054c0.326,0.005,0.188-1.067,0.195-1.299c0.069-2.128,0.138-4.256,0.207-6.384
	c0.001-0.04,2.641,0.059,2.863,0.065c0.851,0.025,1.338-0.25,1.344,0.662c0.004,0.542-0.314,2.49,0.238,2.732
	c0.465,0.203,0.918,0.434,1.413,0.582c0.385,0.115,0.736-0.043,1.14,0.193c0.877,0.514,2.179-0.44,3.015-0.013
	c0.736-0.016,1.593,0.163,2.344,0.165c0.539,0.001,0.533,1.811,0.555,2.239c0.04,0.817,0.794,1.252,0.803,1.979
	C24.814,14.925,25.041,15.427,24.708,15.936z"/>
</svg>
